<svg width="34px" height="33px" xmlns="http://www.w3.org/2000/svg">
  <title>Play</title>
  <g id="play" fill="#607D8B">
    <g transform="translate(-317.000000, -355.000000)">
      <g transform="translate(304.500000, 341.000000)">
        <path d="M35.569298,31.8342005 L27.4424589,36.976609 L27.4363297,36.9662963 C27.3781021,37.0029063 27.3178314,37.0359068 27.2550069,37.0652979 C27.252453,37.0663292 27.2504099,37.0673604 27.2478561,37.0678761 C27.1865639,37.0957202 27.1232286,37.119955 27.0578502,37.1395491 C27.0532533,37.1405803 27.0486563,37.1421272 27.0440594,37.1431585 C27.0159672,37.1514086 26.9873641,37.1586275 26.9582503,37.1653307 C26.9536534,37.166362 26.9485457,37.1679089 26.943438,37.1689401 C26.9112596,37.1756434 26.8790812,37.181831 26.8458812,37.1864717 C26.8407735,37.1875029 26.8351551,37.1880186 26.8300474,37.1885342 C26.8029767,37.1926593 26.7748844,37.1957531 26.7473029,37.1978156 C26.7386198,37.1988469 26.7299367,37.1993625 26.7212537,37.1998781 C26.6880537,37.2019407 26.6548538,37.2034876 26.621143,37.2034876 C25.7753102,37.2034876 25.0888373,36.5109924 25.0888373,35.6565884 L25.0888373,25.3439272 C25.089348,24.4895233 25.7753102,23.7970281 26.621143,23.7970281 C26.9419057,23.7970281 27.239173,23.8965453 27.4853635,24.0661885 L35.5555073,29.158065 C36.0157098,29.4251629 36.3262571,29.9258426 36.3262571,30.5002578 C36.3262571,31.0684854 36.021839,31.5650401 35.569298,31.8342005 L35.569298,31.8342005 Z M29.7172365,17.0937983 C22.3825995,17.0937983 16.4367423,23.0957671 16.4367423,30.5002578 C16.4367423,37.9042329 22.3825995,43.9067173 29.7172365,43.9067173 C37.0513628,43.9067173 42.9967092,37.9042329 42.9967092,30.5002578 C42.9967092,23.0957671 37.0513628,17.0937983 29.7172365,17.0937983 L29.7172365,17.0937983 Z M13.3726415,30.5002578 C13.3726415,21.3874748 20.6899124,14 29.7172365,14 C38.7440499,14 46.0613208,21.3874748 46.0613208,30.5002578 C46.0613208,39.6130408 38.7440499,47.0005156 29.7172365,47.0005156 C20.6899124,47.0005156 13.3726415,39.6130408 13.3726415,30.5002578 Z"></path> 
      </g>
    </g>
  </g>
</svg>